<mxfile host="Electron" agent="Mozilla/5.0 (Windows NT 10.0; Win64; x64) AppleWebKit/537.36 (KHTML, like Gecko) draw.io/25.0.2 Chrome/128.0.6613.186 Electron/32.2.5 Safari/537.36" version="25.0.2">
  <diagram name="Seite-1" id="UNef3Qii1UT9GNie3vts">
    <mxGraphModel dx="1143" dy="737" grid="1" gridSize="10" guides="1" tooltips="1" connect="1" arrows="1" fold="1" page="1" pageScale="1" pageWidth="1169" pageHeight="827" math="0" shadow="0">
      <root>
        <mxCell id="0" />
        <mxCell id="1" parent="0" />
        <mxCell id="aQFpdgkCh0J0lMaWyOth-11" style="rounded=0;orthogonalLoop=1;jettySize=auto;html=1;endArrow=open;endFill=0;strokeColor=default;align=center;verticalAlign=middle;fontFamily=Helvetica;fontSize=11;fontColor=default;labelBackgroundColor=default;curved=1;" parent="1" source="aQFpdgkCh0J0lMaWyOth-2" target="aQFpdgkCh0J0lMaWyOth-3" edge="1">
          <mxGeometry relative="1" as="geometry">
            <Array as="points">
              <mxPoint x="400" y="300" />
            </Array>
          </mxGeometry>
        </mxCell>
        <mxCell id="kCippAos352l5dw4Y73j-10" style="shape=connector;rounded=0;orthogonalLoop=1;jettySize=auto;html=1;strokeColor=default;align=center;verticalAlign=middle;fontFamily=Helvetica;fontSize=11;fontColor=default;labelBackgroundColor=default;endArrow=open;endFill=0;curved=1;" parent="1" source="aQFpdgkCh0J0lMaWyOth-2" target="aQFpdgkCh0J0lMaWyOth-7" edge="1">
          <mxGeometry relative="1" as="geometry">
            <Array as="points">
              <mxPoint x="390" y="340" />
              <mxPoint x="400" y="470" />
            </Array>
          </mxGeometry>
        </mxCell>
        <mxCell id="aQFpdgkCh0J0lMaWyOth-2" value="Bestellposition*&lt;div&gt;[Menge,Preis]&lt;/div&gt;" style="rounded=0;whiteSpace=wrap;html=1;shadow=0;glass=0;strokeColor=default;strokeWidth=2;align=center;verticalAlign=middle;fontFamily=Helvetica;fontSize=12;fontColor=default;fontStyle=1;fillColor=#E6E6E6;" parent="1" vertex="1">
          <mxGeometry x="240" y="280" width="120" height="60" as="geometry" />
        </mxCell>
        <mxCell id="kCippAos352l5dw4Y73j-11" style="shape=connector;rounded=0;orthogonalLoop=1;jettySize=auto;html=1;strokeColor=default;align=center;verticalAlign=middle;fontFamily=Helvetica;fontSize=11;fontColor=default;labelBackgroundColor=default;endArrow=open;endFill=0;curved=1;" parent="1" source="aQFpdgkCh0J0lMaWyOth-3" target="aQFpdgkCh0J0lMaWyOth-5" edge="1">
          <mxGeometry relative="1" as="geometry">
            <Array as="points">
              <mxPoint x="590" y="370" />
            </Array>
          </mxGeometry>
        </mxCell>
        <mxCell id="kCippAos352l5dw4Y73j-12" style="shape=connector;rounded=0;orthogonalLoop=1;jettySize=auto;html=1;strokeColor=default;align=center;verticalAlign=middle;fontFamily=Helvetica;fontSize=11;fontColor=default;labelBackgroundColor=default;endArrow=open;endFill=0;curved=1;" parent="1" source="aQFpdgkCh0J0lMaWyOth-3" target="aQFpdgkCh0J0lMaWyOth-6" edge="1">
          <mxGeometry relative="1" as="geometry">
            <Array as="points">
              <mxPoint x="700" y="290" />
            </Array>
          </mxGeometry>
        </mxCell>
        <mxCell id="aQFpdgkCh0J0lMaWyOth-3" value="Bestellung*&lt;div&gt;[Rabattbetrag, Umsatzsteuer,&lt;/div&gt;&lt;div&gt;Mitgliedsbonus,&lt;/div&gt;&lt;div&gt;Gesamtbetrag]&lt;/div&gt;" style="rounded=0;whiteSpace=wrap;html=1;strokeColor=default;align=center;verticalAlign=middle;fontFamily=Helvetica;fontSize=12;fontColor=default;fillColor=#E6E6E6;shadow=0;glass=0;strokeWidth=2;fontStyle=1;" parent="1" vertex="1">
          <mxGeometry x="440" y="280" width="180" height="60" as="geometry" />
        </mxCell>
        <mxCell id="kCippAos352l5dw4Y73j-6" style="rounded=0;orthogonalLoop=1;jettySize=auto;html=1;strokeColor=default;align=center;verticalAlign=middle;fontFamily=Helvetica;fontSize=11;fontColor=default;labelBackgroundColor=default;endArrow=open;endFill=0;curved=1;" parent="1" source="aQFpdgkCh0J0lMaWyOth-4" target="aQFpdgkCh0J0lMaWyOth-2" edge="1">
          <mxGeometry relative="1" as="geometry">
            <Array as="points">
              <mxPoint x="200" y="300" />
            </Array>
          </mxGeometry>
        </mxCell>
        <mxCell id="kCippAos352l5dw4Y73j-9" style="shape=connector;rounded=0;orthogonalLoop=1;jettySize=auto;html=1;strokeColor=default;align=center;verticalAlign=middle;fontFamily=Helvetica;fontSize=11;fontColor=default;labelBackgroundColor=default;endArrow=open;endFill=0;curved=1;" parent="1" source="aQFpdgkCh0J0lMaWyOth-4" target="kCippAos352l5dw4Y73j-7" edge="1">
          <mxGeometry relative="1" as="geometry">
            <Array as="points">
              <mxPoint x="200" y="350" />
              <mxPoint x="270" y="550" />
            </Array>
          </mxGeometry>
        </mxCell>
        <mxCell id="kCippAos352l5dw4Y73j-23" style="shape=connector;rounded=0;orthogonalLoop=1;jettySize=auto;html=1;strokeColor=default;align=center;verticalAlign=middle;fontFamily=Helvetica;fontSize=11;fontColor=default;labelBackgroundColor=default;endArrow=open;endFill=0;curved=1;" parent="1" source="aQFpdgkCh0J0lMaWyOth-4" target="aQFpdgkCh0J0lMaWyOth-5" edge="1">
          <mxGeometry relative="1" as="geometry">
            <Array as="points">
              <mxPoint x="220" y="340" />
              <mxPoint x="330" y="400" />
            </Array>
          </mxGeometry>
        </mxCell>
        <mxCell id="aQFpdgkCh0J0lMaWyOth-4" value="Lieferung*&lt;div&gt;[Lieferkosten]&lt;/div&gt;" style="rounded=0;whiteSpace=wrap;html=1;strokeColor=default;align=center;verticalAlign=middle;fontFamily=Helvetica;fontSize=12;fontColor=default;fillColor=#E6E6E6;shadow=0;glass=0;strokeWidth=2;fontStyle=1;" parent="1" vertex="1">
          <mxGeometry x="40" y="280" width="120" height="60" as="geometry" />
        </mxCell>
        <mxCell id="kCippAos352l5dw4Y73j-24" style="edgeStyle=none;shape=connector;curved=1;rounded=0;orthogonalLoop=1;jettySize=auto;html=1;entryX=0;entryY=0.75;entryDx=0;entryDy=0;strokeColor=default;align=center;verticalAlign=middle;fontFamily=Helvetica;fontSize=11;fontColor=default;labelBackgroundColor=default;endArrow=open;endFill=0;" parent="1" source="aQFpdgkCh0J0lMaWyOth-5" target="aQFpdgkCh0J0lMaWyOth-6" edge="1">
          <mxGeometry relative="1" as="geometry">
            <Array as="points">
              <mxPoint x="790" y="370" />
              <mxPoint x="810" y="325" />
            </Array>
          </mxGeometry>
        </mxCell>
        <mxCell id="aQFpdgkCh0J0lMaWyOth-5" value="Lieferadresse" style="rounded=0;whiteSpace=wrap;html=1;strokeColor=default;align=center;verticalAlign=middle;fontFamily=Helvetica;fontSize=12;fontColor=default;fillColor=#E6E6E6;" parent="1" vertex="1">
          <mxGeometry x="640" y="360" width="120" height="60" as="geometry" />
        </mxCell>
        <mxCell id="kCippAos352l5dw4Y73j-14" style="edgeStyle=elbowEdgeStyle;shape=connector;rounded=0;orthogonalLoop=1;jettySize=auto;html=1;strokeColor=default;align=center;verticalAlign=middle;fontFamily=Helvetica;fontSize=11;fontColor=default;labelBackgroundColor=default;endArrow=open;endFill=0;curved=1;" parent="1" source="aQFpdgkCh0J0lMaWyOth-6" target="aQFpdgkCh0J0lMaWyOth-9" edge="1">
          <mxGeometry relative="1" as="geometry">
            <mxPoint x="1050" y="280" as="sourcePoint" />
            <mxPoint x="1050" y="210" as="targetPoint" />
            <Array as="points">
              <mxPoint x="870" y="270" />
            </Array>
          </mxGeometry>
        </mxCell>
        <mxCell id="aQFpdgkCh0J0lMaWyOth-6" value="Kunde" style="rounded=0;whiteSpace=wrap;html=1;strokeColor=default;align=center;verticalAlign=middle;fontFamily=Helvetica;fontSize=12;fontColor=default;fillColor=#E6E6E6;" parent="1" vertex="1">
          <mxGeometry x="840" y="280" width="80" height="60" as="geometry" />
        </mxCell>
        <mxCell id="kCippAos352l5dw4Y73j-15" style="shape=connector;rounded=0;orthogonalLoop=1;jettySize=auto;html=1;strokeColor=default;align=center;verticalAlign=middle;fontFamily=Helvetica;fontSize=11;fontColor=default;labelBackgroundColor=default;endArrow=open;endFill=0;curved=1;" parent="1" source="aQFpdgkCh0J0lMaWyOth-7" target="aQFpdgkCh0J0lMaWyOth-10" edge="1">
          <mxGeometry relative="1" as="geometry">
            <Array as="points">
              <mxPoint x="600" y="460" />
            </Array>
          </mxGeometry>
        </mxCell>
        <mxCell id="aQFpdgkCh0J0lMaWyOth-7" value="Produkt*&lt;div&gt;[Werbebudget]&lt;/div&gt;" style="rounded=0;whiteSpace=wrap;html=1;verticalAlign=middle;strokeColor=default;align=center;fontFamily=Helvetica;fontSize=12;fontColor=default;fillColor=#E6E6E6;shadow=0;glass=0;strokeWidth=2;fontStyle=1;" parent="1" vertex="1">
          <mxGeometry x="440" y="440" width="120" height="60" as="geometry" />
        </mxCell>
        <mxCell id="kCippAos352l5dw4Y73j-13" style="edgeStyle=elbowEdgeStyle;shape=connector;rounded=0;orthogonalLoop=1;jettySize=auto;html=1;strokeColor=default;align=center;verticalAlign=middle;fontFamily=Helvetica;fontSize=11;fontColor=default;labelBackgroundColor=default;endArrow=open;endFill=0;curved=1;" parent="1" source="aQFpdgkCh0J0lMaWyOth-9" target="aQFpdgkCh0J0lMaWyOth-6" edge="1">
          <mxGeometry relative="1" as="geometry">
            <Array as="points">
              <mxPoint x="900" y="240" />
            </Array>
          </mxGeometry>
        </mxCell>
        <mxCell id="aQFpdgkCh0J0lMaWyOth-9" value="Vereins-partner" style="rounded=0;whiteSpace=wrap;html=1;strokeColor=default;align=center;verticalAlign=middle;fontFamily=Helvetica;fontSize=12;fontColor=default;fillColor=#E6E6E6;" parent="1" vertex="1">
          <mxGeometry x="840" y="200" width="80" height="60" as="geometry" />
        </mxCell>
        <mxCell id="kCippAos352l5dw4Y73j-16" style="shape=connector;rounded=0;orthogonalLoop=1;jettySize=auto;html=1;strokeColor=default;align=center;verticalAlign=middle;fontFamily=Helvetica;fontSize=11;fontColor=default;labelBackgroundColor=default;endArrow=open;endFill=0;curved=1;" parent="1" source="aQFpdgkCh0J0lMaWyOth-10" target="kCippAos352l5dw4Y73j-3" edge="1">
          <mxGeometry relative="1" as="geometry">
            <Array as="points">
              <mxPoint x="780" y="460" />
            </Array>
          </mxGeometry>
        </mxCell>
        <mxCell id="aQFpdgkCh0J0lMaWyOth-10" value="Kategorie" style="rounded=0;whiteSpace=wrap;html=1;strokeColor=default;align=center;verticalAlign=middle;fontFamily=Helvetica;fontSize=12;fontColor=default;fillColor=#E6E6E6;" parent="1" vertex="1">
          <mxGeometry x="640" y="440" width="120" height="60" as="geometry" />
        </mxCell>
        <mxCell id="kCippAos352l5dw4Y73j-1" value="&lt;h1 style=&quot;margin-top: 0px;&quot;&gt;Oriented Data Model(ODM) of Willibald&lt;/h1&gt;&lt;p&gt;Das ODM Diagramm zeigt über die Leserichtung von Links nach Rechts die Referenzierungsrichtung. Tabellen die eine Referenz enhalten stehen links von den referenzierten Tabellen&lt;/p&gt;" style="text;html=1;whiteSpace=wrap;overflow=hidden;rounded=0;" parent="1" vertex="1">
          <mxGeometry x="20" y="10" width="530" height="120" as="geometry" />
        </mxCell>
        <mxCell id="VWkhp-9mhXPBxh--5XJu-6" value="" style="edgeStyle=none;shape=connector;curved=1;rounded=0;orthogonalLoop=1;jettySize=auto;html=1;strokeColor=default;align=center;verticalAlign=middle;fontFamily=Helvetica;fontSize=11;fontColor=default;labelBackgroundColor=default;endArrow=open;endFill=0;" parent="1" source="kCippAos352l5dw4Y73j-3" target="VWkhp-9mhXPBxh--5XJu-5" edge="1">
          <mxGeometry relative="1" as="geometry">
            <Array as="points">
              <mxPoint x="940" y="450" />
            </Array>
          </mxGeometry>
        </mxCell>
        <mxCell id="VWkhp-9mhXPBxh--5XJu-8" style="edgeStyle=orthogonalEdgeStyle;shape=connector;rounded=0;orthogonalLoop=1;jettySize=auto;html=1;strokeColor=default;align=center;verticalAlign=middle;fontFamily=Helvetica;fontSize=11;fontColor=default;labelBackgroundColor=default;endArrow=oval;endFill=1;dashed=1;dashPattern=1 2;" parent="1" source="kCippAos352l5dw4Y73j-3" target="aQFpdgkCh0J0lMaWyOth-10" edge="1">
          <mxGeometry relative="1" as="geometry">
            <Array as="points">
              <mxPoint x="865" y="430" />
              <mxPoint x="740" y="430" />
            </Array>
          </mxGeometry>
        </mxCell>
        <mxCell id="kCippAos352l5dw4Y73j-3" value="Zehrgruppe" style="rounded=0;whiteSpace=wrap;html=1;dashed=1;strokeColor=default;align=center;verticalAlign=middle;fontFamily=Helvetica;fontSize=12;fontColor=default;fillColor=#E6E6E6;dashPattern=1 2;" parent="1" vertex="1">
          <mxGeometry x="840" y="440" width="90" height="60" as="geometry" />
        </mxCell>
        <mxCell id="kCippAos352l5dw4Y73j-4" style="rounded=0;orthogonalLoop=1;jettySize=auto;html=1;endArrow=open;endFill=0;curved=1;" parent="1" source="aQFpdgkCh0J0lMaWyOth-2" target="aQFpdgkCh0J0lMaWyOth-5" edge="1">
          <mxGeometry relative="1" as="geometry">
            <mxPoint x="230" y="315" as="sourcePoint" />
            <mxPoint x="300" y="315" as="targetPoint" />
            <Array as="points">
              <mxPoint x="400" y="320" />
              <mxPoint x="430" y="370" />
            </Array>
          </mxGeometry>
        </mxCell>
        <mxCell id="kCippAos352l5dw4Y73j-7" value="Lieferdienst" style="rounded=0;whiteSpace=wrap;html=1;strokeColor=default;align=center;verticalAlign=middle;fontFamily=Helvetica;fontSize=12;fontColor=default;fillColor=#E6E6E6;" parent="1" vertex="1">
          <mxGeometry x="440" y="540" width="120" height="60" as="geometry" />
        </mxCell>
        <mxCell id="kCippAos352l5dw4Y73j-18" style="shape=connector;rounded=0;orthogonalLoop=1;jettySize=auto;html=1;strokeColor=default;align=center;verticalAlign=middle;fontFamily=Helvetica;fontSize=11;fontColor=default;labelBackgroundColor=default;endArrow=open;endFill=0;curved=1;" parent="1" source="kCippAos352l5dw4Y73j-17" target="aQFpdgkCh0J0lMaWyOth-7" edge="1">
          <mxGeometry relative="1" as="geometry">
            <Array as="points">
              <mxPoint x="400" y="280" />
              <mxPoint x="400" y="440" />
            </Array>
          </mxGeometry>
        </mxCell>
        <mxCell id="kCippAos352l5dw4Y73j-19" style="shape=connector;rounded=0;orthogonalLoop=1;jettySize=auto;html=1;strokeColor=default;align=center;verticalAlign=middle;fontFamily=Helvetica;fontSize=11;fontColor=default;labelBackgroundColor=default;endArrow=open;endFill=0;curved=1;" parent="1" source="kCippAos352l5dw4Y73j-17" target="aQFpdgkCh0J0lMaWyOth-9" edge="1">
          <mxGeometry relative="1" as="geometry">
            <Array as="points">
              <mxPoint x="600" y="220" />
            </Array>
          </mxGeometry>
        </mxCell>
        <mxCell id="kCippAos352l5dw4Y73j-17" value="Bestellung&lt;div&gt;Roadshow&lt;/div&gt;&lt;div&gt;[Menge, Preis]&lt;/div&gt;" style="rounded=0;whiteSpace=wrap;html=1;shadow=0;glass=0;strokeColor=default;strokeWidth=2;align=center;verticalAlign=middle;fontFamily=Helvetica;fontSize=12;fontColor=default;fontStyle=1;fillColor=#E6E6E6;" parent="1" vertex="1">
          <mxGeometry x="240" y="200" width="120" height="60" as="geometry" />
        </mxCell>
        <mxCell id="kCippAos352l5dw4Y73j-20" value="Tabelle mit&lt;div style=&quot;font-size: 10px;&quot;&gt;aggegierbaren&lt;/div&gt;&lt;div style=&quot;font-size: 10px;&quot;&gt;Werten&lt;/div&gt;&lt;div style=&quot;font-size: 10px;&quot;&gt;[Werte]&lt;/div&gt;" style="rounded=0;whiteSpace=wrap;html=1;strokeColor=default;glass=0;shadow=0;strokeWidth=2;fontStyle=1;fillColor=#E6E6E6;fontSize=10;" parent="1" vertex="1">
          <mxGeometry x="600" y="40" width="120" height="70" as="geometry" />
        </mxCell>
        <mxCell id="kCippAos352l5dw4Y73j-21" value="Tabelle mit Attributen" style="rounded=0;whiteSpace=wrap;html=1;fillColor=#E6E6E6;fontSize=10;" parent="1" vertex="1">
          <mxGeometry x="730" y="40" width="120" height="30" as="geometry" />
        </mxCell>
        <mxCell id="kCippAos352l5dw4Y73j-22" value="Tabelle nur mit Schlüsseln" style="rounded=0;whiteSpace=wrap;html=1;fontSize=10;" parent="1" vertex="1">
          <mxGeometry x="730" y="80" width="120" height="30" as="geometry" />
        </mxCell>
        <mxCell id="kCippAos352l5dw4Y73j-26" value="* um die verschiedenen &quot;Fallen&quot;&amp;nbsp; und deren Behandlung im USS zu demonstrieren wurden Spalten oder ganze Tabelle gegenüber dem Willibald Modell ergänzt" style="text;html=1;align=center;verticalAlign=middle;whiteSpace=wrap;rounded=0;fontFamily=Helvetica;fontSize=11;fontColor=default;labelBackgroundColor=default;" parent="1" vertex="1">
          <mxGeometry x="40" y="540" width="220" height="60" as="geometry" />
        </mxCell>
        <mxCell id="VWkhp-9mhXPBxh--5XJu-2" style="edgeStyle=none;shape=connector;curved=1;rounded=0;orthogonalLoop=1;jettySize=auto;html=1;strokeColor=default;align=center;verticalAlign=middle;fontFamily=Helvetica;fontSize=11;fontColor=default;labelBackgroundColor=default;endArrow=open;endFill=0;" parent="1" source="VWkhp-9mhXPBxh--5XJu-1" target="aQFpdgkCh0J0lMaWyOth-7" edge="1">
          <mxGeometry relative="1" as="geometry">
            <Array as="points">
              <mxPoint x="360" y="470" />
            </Array>
          </mxGeometry>
        </mxCell>
        <mxCell id="VWkhp-9mhXPBxh--5XJu-1" value="Umsatzplan_prod*&lt;div&gt;[Planwert]&lt;/div&gt;" style="rounded=0;whiteSpace=wrap;html=1;verticalAlign=middle;strokeColor=default;align=center;fontFamily=Helvetica;fontSize=12;fontColor=default;fillColor=#E6E6E6;shadow=0;glass=0;strokeWidth=2;fontStyle=1;" parent="1" vertex="1">
          <mxGeometry x="250" y="400" width="120" height="60" as="geometry" />
        </mxCell>
        <mxCell id="VWkhp-9mhXPBxh--5XJu-3" value="Umsatzplan_prodkat *&lt;div&gt;[Planwert]&lt;/div&gt;" style="rounded=0;whiteSpace=wrap;html=1;verticalAlign=middle;strokeColor=default;align=center;fontFamily=Helvetica;fontSize=12;fontColor=default;fillColor=#E6E6E6;shadow=0;glass=0;strokeWidth=2;fontStyle=1;" parent="1" vertex="1">
          <mxGeometry x="630" y="540" width="140" height="60" as="geometry" />
        </mxCell>
        <mxCell id="VWkhp-9mhXPBxh--5XJu-4" style="shape=connector;rounded=0;orthogonalLoop=1;jettySize=auto;html=1;strokeColor=default;align=center;verticalAlign=middle;fontFamily=Helvetica;fontSize=11;fontColor=default;labelBackgroundColor=default;endArrow=open;endFill=0;curved=1;entryX=0.25;entryY=1;entryDx=0;entryDy=0;dashed=1;" parent="1" source="VWkhp-9mhXPBxh--5XJu-3" target="VWkhp-9mhXPBxh--5XJu-5" edge="1">
          <mxGeometry relative="1" as="geometry">
            <Array as="points">
              <mxPoint x="850" y="580" />
            </Array>
            <mxPoint x="770" y="473" as="sourcePoint" />
            <mxPoint x="810" y="473" as="targetPoint" />
          </mxGeometry>
        </mxCell>
        <mxCell id="VWkhp-9mhXPBxh--5XJu-9" style="edgeStyle=orthogonalEdgeStyle;shape=connector;rounded=0;orthogonalLoop=1;jettySize=auto;html=1;dashed=1;dashPattern=1 2;strokeColor=default;align=center;verticalAlign=middle;fontFamily=Helvetica;fontSize=11;fontColor=default;labelBackgroundColor=default;endArrow=oval;endFill=1;" parent="1" source="VWkhp-9mhXPBxh--5XJu-5" target="aQFpdgkCh0J0lMaWyOth-10" edge="1">
          <mxGeometry relative="1" as="geometry">
            <Array as="points">
              <mxPoint x="740" y="510" />
            </Array>
          </mxGeometry>
        </mxCell>
        <mxCell id="VWkhp-9mhXPBxh--5XJu-5" value="Oberkategorie" style="whiteSpace=wrap;html=1;fillColor=#E6E6E6;rounded=0;dashed=1;dashPattern=1 2;" parent="1" vertex="1">
          <mxGeometry x="960" y="440" width="90" height="60" as="geometry" />
        </mxCell>
        <mxCell id="VWkhp-9mhXPBxh--5XJu-7" value="Fachliche&lt;div&gt;Projektion&lt;/div&gt;" style="rounded=0;whiteSpace=wrap;html=1;dashed=1;strokeColor=default;align=center;verticalAlign=middle;fontFamily=Helvetica;fontSize=12;fontColor=default;fillColor=#E6E6E6;dashPattern=1 2;" parent="1" vertex="1">
          <mxGeometry x="870" y="40" width="90" height="40" as="geometry" />
        </mxCell>
        <mxCell id="VWkhp-9mhXPBxh--5XJu-10" value="Ursprung" style="edgeStyle=none;shape=connector;curved=1;rounded=0;orthogonalLoop=1;jettySize=auto;html=1;dashed=1;dashPattern=1 2;strokeColor=default;align=center;verticalAlign=middle;fontFamily=Helvetica;fontSize=11;fontColor=default;labelBackgroundColor=default;endArrow=oval;endFill=1;" parent="1" edge="1">
          <mxGeometry y="10" relative="1" as="geometry">
            <mxPoint x="960" y="100" as="sourcePoint" />
            <mxPoint x="880" y="100" as="targetPoint" />
            <mxPoint as="offset" />
          </mxGeometry>
        </mxCell>
        <mxCell id="VWkhp-9mhXPBxh--5XJu-11" style="shape=connector;rounded=0;orthogonalLoop=1;jettySize=auto;html=1;strokeColor=default;align=center;verticalAlign=middle;fontFamily=Helvetica;fontSize=11;fontColor=default;labelBackgroundColor=default;endArrow=open;endFill=0;curved=1;dashed=1;" parent="1" edge="1">
          <mxGeometry relative="1" as="geometry">
            <Array as="points">
              <mxPoint x="930" y="140" />
            </Array>
            <mxPoint x="870" y="140" as="sourcePoint" />
            <mxPoint x="970" y="140" as="targetPoint" />
          </mxGeometry>
        </mxCell>
        <mxCell id="VWkhp-9mhXPBxh--5XJu-12" value="Referenz&lt;div&gt;per Textvergleich&lt;/div&gt;" style="edgeLabel;html=1;align=center;verticalAlign=middle;resizable=0;points=[];fontFamily=Helvetica;fontSize=11;fontColor=default;labelBackgroundColor=default;" parent="VWkhp-9mhXPBxh--5XJu-11" vertex="1" connectable="0">
          <mxGeometry x="-0.3648" relative="1" as="geometry">
            <mxPoint x="13" y="20" as="offset" />
          </mxGeometry>
        </mxCell>
        <mxCell id="VWkhp-9mhXPBxh--5XJu-13" style="shape=connector;rounded=0;orthogonalLoop=1;jettySize=auto;html=1;strokeColor=default;align=center;verticalAlign=middle;fontFamily=Helvetica;fontSize=11;fontColor=default;labelBackgroundColor=default;endArrow=open;endFill=0;curved=1;" parent="1" edge="1">
          <mxGeometry relative="1" as="geometry">
            <Array as="points">
              <mxPoint x="800" y="140" />
            </Array>
            <mxPoint x="740" y="140" as="sourcePoint" />
            <mxPoint x="840" y="140" as="targetPoint" />
          </mxGeometry>
        </mxCell>
        <mxCell id="VWkhp-9mhXPBxh--5XJu-14" value="Referenz&lt;div&gt;per Schlüssel&lt;/div&gt;" style="edgeLabel;html=1;align=center;verticalAlign=middle;resizable=0;points=[];fontFamily=Helvetica;fontSize=11;fontColor=default;labelBackgroundColor=default;" parent="VWkhp-9mhXPBxh--5XJu-13" vertex="1" connectable="0">
          <mxGeometry x="-0.3648" relative="1" as="geometry">
            <mxPoint x="18" y="20" as="offset" />
          </mxGeometry>
        </mxCell>
        <mxCell id="ZqQWEdDKXTKqN2O3Py4e-1" value="" style="rounded=0;whiteSpace=wrap;html=1;opacity=70;strokeColor=none;" vertex="1" parent="1">
          <mxGeometry x="230" y="190" width="140" height="80" as="geometry" />
        </mxCell>
      </root>
    </mxGraphModel>
  </diagram>
</mxfile>
